<?xml version="1.0" encoding="utf-8"?>
<!-- Generator: Adobe Illustrator 16.0.0, SVG Export Plug-In . SVG Version: 6.00 Build 0)  -->
<!DOCTYPE svg PUBLIC "-//W3C//DTD SVG 1.1//EN" "http://www.w3.org/Graphics/SVG/1.1/DTD/svg11.dtd">
<svg version="1.1" id="Layer_1" xmlns="http://www.w3.org/2000/svg" xmlns:xlink="http://www.w3.org/1999/xlink" x="0px" y="0px"
	 width="360.958px" height="263.47px" viewBox="0 0 360.958 263.47" enable-background="new 0 0 360.958 263.47"
	 xml:space="preserve">
<g>
	<path fill="#FFFFFF" d="M70.195,85.952h9.103v30.908h0.207c3.207-5.508,8.999-8.977,17.067-8.977
		c12.413,0,21.102,10.201,21.102,25.093c0,17.749-11.378,26.521-22.55,26.521c-7.241,0-12.93-2.754-16.757-9.282H78.16l-0.518,8.16
		h-7.861c0.311-3.366,0.414-8.364,0.414-12.75V85.952z M79.297,138.587c0,1.122,0.104,2.244,0.31,3.264
		c1.759,6.222,7.138,10.506,13.654,10.506c9.62,0,15.206-7.65,15.206-18.973c0-9.997-5.172-18.463-14.896-18.463
		c-6.206,0-11.999,4.284-13.757,11.017c-0.31,1.122-0.517,2.346-0.517,3.774V138.587z"/>
	<path fill="#FFFFFF" d="M149.528,159.498c-13.447,0-23.998-9.792-23.998-25.399c0-16.524,11.068-26.215,24.825-26.215
		c14.378,0,24.102,10.303,24.102,25.297c0,18.361-12.93,26.317-24.826,26.317H149.528z M149.838,152.766
		c8.689,0,15.206-8.059,15.206-19.279c0-8.365-4.241-18.871-14.999-18.871c-10.654,0-15.309,9.792-15.309,19.177
		c0,10.812,6.207,18.973,14.999,18.973H149.838z"/>
	<path fill="#FFFFFF" d="M188.728,109.005l7.137,10.507c1.862,2.856,3.414,5.304,5.069,8.058h0.31
		c1.655-2.856,3.31-5.406,5.069-8.058l6.93-10.507h9.93l-17.067,23.87l17.481,25.501h-10.344l-7.344-11.119
		c-1.965-2.856-3.62-5.61-5.379-8.568h-0.207c-1.655,2.958-3.414,5.61-5.275,8.568l-7.241,11.119h-10.033l17.792-25.195
		l-16.964-24.175H188.728z"/>
</g>
<g>
	<path fill="#FFFFFF" d="M275.207,161.503h-39.334v-11.87h11.006v-43.206h-11.006v-11.87h39.334v11.87H264.2v43.206h11.006V161.503z
		"/>
	<path fill="#FFFFFF" d="M341.877,107.506h-20.976v53.997H303.58v-53.997h-20.976V94.558h59.273V107.506z"/>
</g>
<path fill="#382E7E" d="M247.165,54.842"/>
<polygon fill="#FFFFFF" points="241.998,83.258 241.998,33.008 43.748,33.008 43.748,222.008 241.498,222.008 241.498,172.008 
	250.748,172.008 250.748,231.758 32.998,231.758 32.998,22.508 251.248,22.508 251.248,83.258 "/>
</svg>
